<svg height="2062" width="720" xmlns="http://www.w3.org/2000/svg">
<rect height="2062" fill="#555" width="720"></rect>
<text fill="#7f7" font-family="Courier New" font-size="12" xml:space="preserve">
<tspan x="10" y="26">12 megabytes installed</tspan>
<tspan x="10" y="42"></tspan>
<tspan x="10" y="58">node_modules</tspan>
<tspan x="10" y="74">└─┬ ascii-art@1.4.2 </tspan>
<tspan x="10" y="90">  ├── browser-request@0.3.3 </tspan>
<tspan x="10" y="106">  ├── dirname-shim@1.0.0 </tspan>
<tspan x="10" y="122">  ├─┬ jsftp@1.5.5 </tspan>
<tspan x="10" y="138">  │ ├─┬ debug@2.6.3 </tspan>
<tspan x="10" y="154">  │ │ └── ms@0.7.2 </tspan>
<tspan x="10" y="170">  │ ├─┬ ftp-response-parser@1.0.1 </tspan>
<tspan x="10" y="186">  │ │ └─┬ readable-stream@1.1.14 </tspan>
<tspan x="10" y="202">  │ │   ├── core-util-is@1.0.2 </tspan>
<tspan x="10" y="218">  │ │   ├── inherits@2.0.3 </tspan>
<tspan x="10" y="234">  │ │   ├── isarray@0.0.1 </tspan>
<tspan x="10" y="250">  │ │   └── string_decoder@0.10.31 </tspan>
<tspan x="10" y="266">  │ ├─┬ once@1.4.0 </tspan>
<tspan x="10" y="282">  │ │ └── wrappy@1.0.2 </tspan>
<tspan x="10" y="298">  │ ├── parse-listing@1.1.3 </tspan>
<tspan x="10" y="314">  │ ├─┬ stream-combiner@0.2.2 </tspan>
<tspan x="10" y="330">  │ │ ├── duplexer@0.1.1 </tspan>
<tspan x="10" y="346">  │ │ └── through@2.3.8 </tspan>
<tspan x="10" y="362">  │ └── unorm@1.4.1 </tspan>
<tspan x="10" y="378">  ├─┬ request@2.79.0 </tspan>
<tspan x="10" y="394">  │ ├── aws-sign2@0.6.0 </tspan>
<tspan x="10" y="410">  │ ├── aws4@1.6.0 </tspan>
<tspan x="10" y="426">  │ ├── caseless@0.11.0 </tspan>
<tspan x="10" y="442">  │ ├─┬ combined-stream@1.0.5 </tspan>
<tspan x="10" y="458">  │ │ └── delayed-stream@1.0.0 </tspan>
<tspan x="10" y="474">  │ ├── extend@3.0.0 </tspan>
<tspan x="10" y="490">  │ ├── forever-agent@0.6.1 </tspan>
<tspan x="10" y="506">  │ ├─┬ form-data@2.1.4 </tspan>
<tspan x="10" y="522">  │ │ └── asynckit@0.4.0 </tspan>
<tspan x="10" y="538">  │ ├─┬ har-validator@2.0.6 </tspan>
<tspan x="10" y="554">  │ │ ├─┬ chalk@1.1.3 </tspan>
<tspan x="10" y="570">  │ │ │ ├── ansi-styles@2.2.1 </tspan>
<tspan x="10" y="586">  │ │ │ ├── escape-string-regexp@1.0.5 </tspan>
<tspan x="10" y="602">  │ │ │ ├── has-ansi@2.0.0 </tspan>
<tspan x="10" y="618">  │ │ │ └── supports-color@2.0.0 </tspan>
<tspan x="10" y="634">  │ │ ├─┬ commander@2.9.0 </tspan>
<tspan x="10" y="650">  │ │ │ └── graceful-readlink@1.0.1 </tspan>
<tspan x="10" y="666">  │ │ ├─┬ is-my-json-valid@2.16.0 </tspan>
<tspan x="10" y="682">  │ │ │ ├── generate-function@2.0.0 </tspan>
<tspan x="10" y="698">  │ │ │ ├─┬ generate-object-property@1.2.0 </tspan>
<tspan x="10" y="714">  │ │ │ │ └── is-property@1.0.2 </tspan>
<tspan x="10" y="730">  │ │ │ ├── jsonpointer@4.0.1 </tspan>
<tspan x="10" y="746">  │ │ │ └── xtend@4.0.1 </tspan>
<tspan x="10" y="762">  │ │ └─┬ pinkie-promise@2.0.1 </tspan>
<tspan x="10" y="778">  │ │   └── pinkie@2.0.4 </tspan>
<tspan x="10" y="794">  │ ├─┬ hawk@3.1.3 </tspan>
<tspan x="10" y="810">  │ │ ├── boom@2.10.1 </tspan>
<tspan x="10" y="826">  │ │ ├── cryptiles@2.0.5 </tspan>
<tspan x="10" y="842">  │ │ ├── hoek@2.16.3 </tspan>
<tspan x="10" y="858">  │ │ └── sntp@1.0.9 </tspan>
<tspan x="10" y="874">  │ ├─┬ http-signature@1.1.1 </tspan>
<tspan x="10" y="890">  │ │ ├── assert-plus@0.2.0 </tspan>
<tspan x="10" y="906">  │ │ ├─┬ jsprim@1.4.0 </tspan>
<tspan x="10" y="922">  │ │ │ ├── assert-plus@1.0.0 </tspan>
<tspan x="10" y="938">  │ │ │ ├── extsprintf@1.0.2 </tspan>
<tspan x="10" y="954">  │ │ │ ├── json-schema@0.2.3 </tspan>
<tspan x="10" y="970">  │ │ │ └── verror@1.3.6 </tspan>
<tspan x="10" y="986">  │ │ └─┬ sshpk@1.13.0 </tspan>
<tspan x="10" y="1002">  │ │   ├── asn1@0.2.3 </tspan>
<tspan x="10" y="1018">  │ │   ├── assert-plus@1.0.0 </tspan>
<tspan x="10" y="1034">  │ │   ├── bcrypt-pbkdf@1.0.1 </tspan>
<tspan x="10" y="1050">  │ │   ├─┬ dashdash@1.14.1 </tspan>
<tspan x="10" y="1066">  │ │   │ └── assert-plus@1.0.0 </tspan>
<tspan x="10" y="1082">  │ │   ├── ecc-jsbn@0.1.1 </tspan>
<tspan x="10" y="1098">  │ │   ├─┬ getpass@0.1.6 </tspan>
<tspan x="10" y="1114">  │ │   │ └── assert-plus@1.0.0 </tspan>
<tspan x="10" y="1130">  │ │   ├── jodid25519@1.0.2 </tspan>
<tspan x="10" y="1146">  │ │   ├── jsbn@0.1.1 </tspan>
<tspan x="10" y="1162">  │ │   └── tweetnacl@0.14.5 </tspan>
<tspan x="10" y="1178">  │ ├── is-typedarray@1.0.0 </tspan>
<tspan x="10" y="1194">  │ ├── isstream@0.1.2 </tspan>
<tspan x="10" y="1210">  │ ├── json-stringify-safe@5.0.1 </tspan>
<tspan x="10" y="1226">  │ ├─┬ mime-types@2.1.15 </tspan>
<tspan x="10" y="1242">  │ │ └── mime-db@1.27.0 </tspan>
<tspan x="10" y="1258">  │ ├── oauth-sign@0.8.2 </tspan>
<tspan x="10" y="1274">  │ ├── qs@6.3.2 </tspan>
<tspan x="10" y="1290">  │ ├── stringstream@0.0.5 </tspan>
<tspan x="10" y="1306">  │ ├─┬ tough-cookie@2.3.2 </tspan>
<tspan x="10" y="1322">  │ │ └── punycode@1.4.1 </tspan>
<tspan x="10" y="1338">  │ ├── tunnel-agent@0.4.3 </tspan>
<tspan x="10" y="1354">  │ └── uuid@3.0.1 </tspan>
<tspan x="10" y="1370">  └─┬ yargs@7.1.0 </tspan>
<tspan x="10" y="1386">    ├── camelcase@3.0.0 </tspan>
<tspan x="10" y="1402">    ├─┬ cliui@3.2.0 </tspan>
<tspan x="10" y="1418">    │ ├─┬ strip-ansi@3.0.1 </tspan>
<tspan x="10" y="1434">    │ │ └── ansi-regex@2.1.1 </tspan>
<tspan x="10" y="1450">    │ └── wrap-ansi@2.1.0 </tspan>
<tspan x="10" y="1466">    ├── decamelize@1.2.0 </tspan>
<tspan x="10" y="1482">    ├── get-caller-file@1.0.2 </tspan>
<tspan x="10" y="1498">    ├─┬ os-locale@1.4.0 </tspan>
<tspan x="10" y="1514">    │ └─┬ lcid@1.0.0 </tspan>
<tspan x="10" y="1530">    │   └── invert-kv@1.0.0 </tspan>
<tspan x="10" y="1546">    ├─┬ read-pkg-up@1.0.1 </tspan>
<tspan x="10" y="1562">    │ ├─┬ find-up@1.1.2 </tspan>
<tspan x="10" y="1578">    │ │ └── path-exists@2.1.0 </tspan>
<tspan x="10" y="1594">    │ └─┬ read-pkg@1.1.0 </tspan>
<tspan x="10" y="1610">    │   ├─┬ load-json-file@1.1.0 </tspan>
<tspan x="10" y="1626">    │   │ ├── graceful-fs@4.1.11 </tspan>
<tspan x="10" y="1642">    │   │ ├─┬ parse-json@2.2.0 </tspan>
<tspan x="10" y="1658">    │   │ │ └─┬ error-ex@1.3.1 </tspan>
<tspan x="10" y="1674">    │   │ │   └── is-arrayish@0.2.1 </tspan>
<tspan x="10" y="1690">    │   │ ├── pify@2.3.0 </tspan>
<tspan x="10" y="1706">    │   │ └─┬ strip-bom@2.0.0 </tspan>
<tspan x="10" y="1722">    │   │   └── is-utf8@0.2.1 </tspan>
<tspan x="10" y="1738">    │   ├─┬ normalize-package-data@2.3.6 </tspan>
<tspan x="10" y="1754">    │   │ ├── hosted-git-info@2.4.2 </tspan>
<tspan x="10" y="1770">    │   │ ├─┬ is-builtin-module@1.0.0 </tspan>
<tspan x="10" y="1786">    │   │ │ └── builtin-modules@1.1.1 </tspan>
<tspan x="10" y="1802">    │   │ ├── semver@5.3.0 </tspan>
<tspan x="10" y="1818">    │   │ └─┬ validate-npm-package-license@3.0.1 </tspan>
<tspan x="10" y="1834">    │   │   ├─┬ spdx-correct@1.0.2 </tspan>
<tspan x="10" y="1850">    │   │   │ └── spdx-license-ids@1.2.2 </tspan>
<tspan x="10" y="1866">    │   │   └── spdx-expression-parse@1.0.4 </tspan>
<tspan x="10" y="1882">    │   └── path-type@1.1.0 </tspan>
<tspan x="10" y="1898">    ├── require-directory@2.1.1 </tspan>
<tspan x="10" y="1914">    ├── require-main-filename@1.0.1 </tspan>
<tspan x="10" y="1930">    ├── set-blocking@2.0.0 </tspan>
<tspan x="10" y="1946">    ├─┬ string-width@1.0.2 </tspan>
<tspan x="10" y="1962">    │ ├── code-point-at@1.1.0 </tspan>
<tspan x="10" y="1978">    │ └─┬ is-fullwidth-code-point@1.0.0 </tspan>
<tspan x="10" y="1994">    │   └── number-is-nan@1.0.1 </tspan>
<tspan x="10" y="2010">    ├── which-module@1.0.0 </tspan>
<tspan x="10" y="2026">    ├── y18n@3.2.1 </tspan>
<tspan x="10" y="2042">    └── yargs-parser@5.0.0</tspan>
</text>
</svg>
